<?xml version="1.0" encoding="UTF-8" standalone="no"?>
<!-- Created with Inkscape (http://www.inkscape.org/) -->

<svg
   xmlns:dc="http://purl.org/dc/elements/1.1/"
   xmlns:cc="http://creativecommons.org/ns#"
   xmlns:rdf="http://www.w3.org/1999/02/22-rdf-syntax-ns#"
   xmlns:svg="http://www.w3.org/2000/svg"
   xmlns="http://www.w3.org/2000/svg"
   xmlns:sodipodi="http://sodipodi.sourceforge.net/DTD/sodipodi-0.dtd"
   xmlns:inkscape="http://www.inkscape.org/namespaces/inkscape"
   width="256"
   height="256"
   viewBox="0 0 256.00001 256"
   id="svg2"
   version="1.1"
   inkscape:version="0.91 r13725"
   sodipodi:docname="exploration logo.svg">
  <defs
     id="defs4" />
  <sodipodi:namedview
     id="base"
     pagecolor="#ffffff"
     bordercolor="#666666"
     borderopacity="1.0"
     inkscape:pageopacity="0.0"
     inkscape:pageshadow="2"
     inkscape:zoom="1"
     inkscape:cx="94.559279"
     inkscape:cy="180.24078"
     inkscape:document-units="px"
     inkscape:current-layer="layer3"
     showgrid="false"
     inkscape:snap-smooth-nodes="true"
     inkscape:object-nodes="true"
     inkscape:snap-global="true"
     fit-margin-top="0"
     fit-margin-left="2.6"
     fit-margin-right="0"
     fit-margin-bottom="0"
     units="px"
     inkscape:window-width="1368"
     inkscape:window-height="849"
     inkscape:window-x="-8"
     inkscape:window-y="-8"
     inkscape:window-maximized="1" />
  <metadata
     id="metadata7">
    <rdf:RDF>
      <cc:Work
         rdf:about="">
        <dc:format>image/svg+xml</dc:format>
        <dc:type
           rdf:resource="http://purl.org/dc/dcmitype/StillImage" />
        <dc:title></dc:title>
      </cc:Work>
    </rdf:RDF>
  </metadata>
  <g
     inkscape:label="Calque 1"
     inkscape:groupmode="layer"
     id="layer1"
     style="display:none"
     transform="translate(-179.48797,-450.4219)">
    <path
       style="color:#000000;font-style:normal;font-variant:normal;font-weight:normal;font-stretch:normal;font-size:medium;line-height:normal;font-family:sans-serif;text-indent:0;text-align:start;text-decoration:none;text-decoration-line:none;text-decoration-style:solid;text-decoration-color:#000000;letter-spacing:normal;word-spacing:normal;text-transform:none;direction:ltr;block-progression:tb;writing-mode:lr-tb;baseline-shift:baseline;text-anchor:start;white-space:normal;clip-rule:nonzero;display:inline;overflow:visible;visibility:visible;opacity:1;isolation:auto;mix-blend-mode:normal;color-interpolation:sRGB;color-interpolation-filters:linearRGB;solid-color:#000000;solid-opacity:1;fill:#800000;fill-opacity:1;fill-rule:evenodd;stroke:none;stroke-width:60;stroke-linecap:round;stroke-linejoin:miter;stroke-miterlimit:4;stroke-dasharray:none;stroke-dashoffset:0;stroke-opacity:1;color-rendering:auto;image-rendering:auto;shape-rendering:auto;text-rendering:auto;enable-background:accumulate"
       d="m 148.48242,56.785156 c -72.699958,-5e-6 -132.50195,59.205704 -132.501951,131.722654 6e-6,65.26457 48.441717,119.73599 111.126951,129.98047 -1.31941,-0.9944 -2.58629,-2.08688 -3.7832,-3.29297 -13.71491,-13.82012 -13.46307,-36.34853 0.55664,-49.85937 l 7.20508,-7.15235 C 99.178666,250.5733 75.980472,222.43591 75.980469,188.50781 c 0,-39.84199 31.981741,-71.72266 72.501951,-71.72265 34.39642,0 62.62803,22.97678 70.37891,54.29101 l 7.41797,-7.36133 c 6.36341,-6.49632 15.0109,-10.26307 24.10156,-10.49804 11.45765,-0.29591 22.13363,5.05033 28.83594,13.92968 C 268.8519,104.71697 213.89332,56.785156 148.48242,56.785156 Z"
       id="path4587"
       inkscape:connector-curvature="0" />
    <path
       id="path4465"
       style="fill:#808000;fill-rule:evenodd;stroke:none;stroke-width:1px;stroke-linecap:butt;stroke-linejoin:miter;stroke-opacity:1"
       d="m 112.90258,469.68885 70.70997,70.71093 17.67773,-17.67773 -53.03125,-53.0332 35.35449,-35.35547 53.03223,53.0332 17.67773,-17.67773 -70.71093,-70.71094 z M 183.61255,328.26697 42.191652,469.68885 183.61255,611.11072 l 53.0332,-53.0332 53.0332,53.0332 35.35547,-35.35547 -53.0332,-53.0332 53.03125,-53.03223 -141.41992,-141.42285 z"
       inkscape:connector-curvature="0" />
    <path
       style="fill:#800000;fill-rule:evenodd;stroke:none;stroke-width:1px;stroke-linecap:butt;stroke-linejoin:miter;stroke-opacity:1"
       d="m 445.84007,806.42077 0.002,199.99803 199.998,0 70.709,0 -70.709,-70.70897 0,-4.29101 0,-50 0,-75 -200,0 z m 50,50 100,100 -99.998,-0.002 -0.002,-99.99805 z m 70.711,0 29.289,0 0,25 0,4.28906 -29.289,-29.28906 z"
       id="path4473"
       inkscape:connector-curvature="0" />
    <g
       id="g4528"
       transform="translate(-168.84412,134.20943)">
      <path
         id="path4501"
         d="m 388.11914,793.56055 35.35547,35.35547 35.35547,0 0,-35.35547 -35.35547,-35.35547"
         style="fill:#808000;fill-rule:evenodd;stroke:none;stroke-width:1px;stroke-linecap:butt;stroke-linejoin:miter;stroke-opacity:1"
         inkscape:connector-curvature="0" />
      <path
         inkscape:connector-curvature="0"
         id="path4516"
         style="fill:#008080;fill-rule:evenodd;stroke:none;stroke-width:1px;stroke-linecap:butt;stroke-linejoin:miter;stroke-opacity:1"
         d="m 282.05469,758.20312 0,35.35547 35.35351,35.35547 35.35547,0 0,-35.35547 -35.35352,-35.35547 -35.35546,0 z m -70.70898,-70.71094 0,35.35547 35.35351,35.35547 35.35547,0 0,-35.35547 -35.35352,-35.35547 -35.35546,0 z" />
      <path
         d="m 282.05665,652.13867 -35.35547,0 -35.35547,35.35351 0,35.35547 35.35547,0 35.35547,-35.35352 0,-35.35546 z m 70.71094,-70.70898 -35.35547,0 -35.35547,35.35351 0,35.35547 35.35547,0 35.35547,-35.35352 0,-35.35546 z"
         style="fill:#008080;fill-rule:evenodd;stroke:none;stroke-width:1px;stroke-linecap:butt;stroke-linejoin:miter;stroke-opacity:1"
         id="path4518"
         inkscape:connector-curvature="0" />
      <path
         d="m 388.1211,652.14063 0,35.35547 35.35351,35.35547 35.35547,0 0,-35.35547 -35.35352,-35.35547 -35.35546,0 z m -70.70898,-70.71094 0,35.35547 35.35351,35.35547 35.35547,0 0,-35.35547 -35.35352,-35.35547 -35.35546,0 z"
         style="fill:#008080;fill-rule:evenodd;stroke:none;stroke-width:1px;stroke-linecap:butt;stroke-linejoin:miter;stroke-opacity:1"
         id="path4522"
         inkscape:connector-curvature="0" />
      <path
         d="m 388.11914,758.20508 0,35.35547 35.35351,35.35547 35.35547,0 0,-35.35547 -35.35352,-35.35547 -35.35546,0 z m -70.70898,-70.71094 0,35.35547 35.35351,35.35547 35.35547,0 0,-35.35547 -35.35352,-35.35547 -35.35546,0 z"
         style="fill:#ff00ff;fill-rule:evenodd;stroke:none;stroke-width:1px;stroke-linecap:butt;stroke-linejoin:miter;stroke-opacity:1"
         id="path4510"
         inkscape:connector-curvature="0" />
      <path
         inkscape:connector-curvature="0"
         id="path4520"
         style="fill:#00ff00;fill-rule:evenodd;stroke:none;stroke-width:1px;stroke-linecap:butt;stroke-linejoin:miter;stroke-opacity:1"
         d="m 388.11914,758.20508 -35.35547,0 -35.35547,35.35351 0,35.35547 35.35547,0 35.35547,-35.35352 0,-35.35546 z m 70.71094,-70.70898 -35.35547,0 -35.35547,35.35351 0,35.35547 35.35547,0 35.35547,-35.35352 0,-35.35546 z" />
    </g>
    <path
       inkscape:transform-center-y="-25.665561"
       d="m 634.50287,74.929291 88.9081,153.993349 -177.8162,0 z"
       inkscape:randomized="0"
       inkscape:rounded="0"
       inkscape:flatsided="true"
       sodipodi:arg2="-0.52359878"
       sodipodi:arg1="-1.5707963"
       sodipodi:r2="51.331116"
       sodipodi:r1="102.66223"
       sodipodi:cy="177.59152"
       sodipodi:cx="634.50287"
       sodipodi:sides="3"
       id="path4543"
       style="color:#000000;clip-rule:nonzero;display:inline;overflow:visible;visibility:visible;opacity:1;isolation:auto;mix-blend-mode:normal;color-interpolation:sRGB;color-interpolation-filters:linearRGB;solid-color:#000000;solid-opacity:1;fill:#00ff00;fill-opacity:1;fill-rule:evenodd;stroke:none;stroke-width:40;stroke-linecap:butt;stroke-linejoin:miter;stroke-miterlimit:4;stroke-dasharray:none;stroke-dashoffset:0;stroke-opacity:1;color-rendering:auto;image-rendering:auto;shape-rendering:auto;text-rendering:auto;enable-background:accumulate"
       sodipodi:type="star" />
    <path
       id="path4546"
       d="m 631.50586,504.80078 -88.90625,-153.99219 -88.9082,0 -88.90625,153.99219 177.81445,0.002 0,-0.002 88.9082,-153.99219"
       style="color:#000000;clip-rule:nonzero;display:inline;overflow:visible;visibility:visible;opacity:1;isolation:auto;mix-blend-mode:normal;color-interpolation:sRGB;color-interpolation-filters:linearRGB;solid-color:#000000;solid-opacity:1;fill:none;fill-opacity:1;fill-rule:evenodd;stroke:#ff0000;stroke-width:50;stroke-linecap:square;stroke-linejoin:miter;stroke-miterlimit:4;stroke-dasharray:none;stroke-dashoffset:0;stroke-opacity:1;color-rendering:auto;image-rendering:auto;shape-rendering:auto;text-rendering:auto;enable-background:accumulate"
       inkscape:connector-curvature="0"
       sodipodi:nodetypes="ccccccc" />
    <path
       style="color:#000000;clip-rule:nonzero;display:inline;overflow:visible;visibility:visible;opacity:1;isolation:auto;mix-blend-mode:normal;color-interpolation:sRGB;color-interpolation-filters:linearRGB;solid-color:#000000;solid-opacity:1;fill:none;fill-opacity:1;fill-rule:evenodd;stroke:#ff0000;stroke-width:50;stroke-linecap:butt;stroke-linejoin:miter;stroke-miterlimit:4;stroke-dasharray:none;stroke-dashoffset:0;stroke-opacity:1;color-rendering:auto;image-rendering:auto;shape-rendering:auto;text-rendering:auto;enable-background:accumulate"
       d="m 622.43099,272.23623 -90.25675,0 -45.12838,-78.16464 45.12838,-78.16464 90.25675,0"
       id="path4556"
       inkscape:connector-curvature="0" />
    <path
       style="color:#000000;clip-rule:nonzero;display:inline;overflow:visible;visibility:visible;opacity:1;isolation:auto;mix-blend-mode:normal;color-interpolation:sRGB;color-interpolation-filters:linearRGB;solid-color:#000000;solid-opacity:1;fill:none;fill-opacity:1;fill-rule:evenodd;stroke:#ff0000;stroke-width:50;stroke-linecap:butt;stroke-linejoin:miter;stroke-miterlimit:4;stroke-dasharray:none;stroke-dashoffset:0;stroke-opacity:1;color-rendering:auto;image-rendering:auto;shape-rendering:auto;text-rendering:auto;enable-background:accumulate"
       d="m 622.43099,115.90695 45.12838,78.16464 -45.12838,78.16464"
       id="path4548"
       inkscape:connector-curvature="0" />
    <path
       id="path4589"
       d="m 146.71485,318.48828 c 72.69995,0 132.50195,-59.20571 132.50195,-131.72266 -10e-6,-65.26457 -48.44172,-119.735988 -111.12695,-129.980468 1.31941,0.9944 2.58629,2.08688 3.7832,3.29297 13.71491,13.82012 13.46307,36.34853 -0.55664,49.859368 l -7.20508,7.15235 c 31.90727,7.61029 55.10546,35.74768 55.10547,69.67578 0,39.84199 -31.98174,71.72266 -72.50195,71.72265 -34.39642,0 -62.628028,-22.97678 -70.378908,-54.29101 l -7.41797,7.36133 c -6.36341,6.49632 -15.0109,10.26307 -24.10156,10.49804 -11.45765,0.29591 -22.13363,-5.05033 -28.83594,-13.92968 10.3649,62.42951 65.32348,110.36133 130.734378,110.36133 z"
       style="color:#000000;font-style:normal;font-variant:normal;font-weight:normal;font-stretch:normal;font-size:medium;line-height:normal;font-family:sans-serif;text-indent:0;text-align:start;text-decoration:none;text-decoration-line:none;text-decoration-style:solid;text-decoration-color:#000000;letter-spacing:normal;word-spacing:normal;text-transform:none;direction:ltr;block-progression:tb;writing-mode:lr-tb;baseline-shift:baseline;text-anchor:start;white-space:normal;clip-rule:nonzero;display:inline;overflow:visible;visibility:visible;opacity:1;isolation:auto;mix-blend-mode:normal;color-interpolation:sRGB;color-interpolation-filters:linearRGB;solid-color:#000000;solid-opacity:1;fill:#800000;fill-opacity:1;fill-rule:evenodd;stroke:none;stroke-width:60;stroke-linecap:round;stroke-linejoin:miter;stroke-miterlimit:4;stroke-dasharray:none;stroke-dashoffset:0;stroke-opacity:1;color-rendering:auto;image-rendering:auto;shape-rendering:auto;text-rendering:auto;enable-background:accumulate"
       inkscape:connector-curvature="0" />
    <path
       style="color:#000000;font-style:normal;font-variant:normal;font-weight:normal;font-stretch:normal;font-size:medium;line-height:normal;font-family:sans-serif;text-indent:0;text-align:start;text-decoration:none;text-decoration-line:none;text-decoration-style:solid;text-decoration-color:#000000;letter-spacing:normal;word-spacing:normal;text-transform:none;direction:ltr;block-progression:tb;writing-mode:lr-tb;baseline-shift:baseline;text-anchor:start;white-space:normal;clip-rule:nonzero;display:inline;overflow:visible;visibility:visible;opacity:1;isolation:auto;mix-blend-mode:normal;color-interpolation:sRGB;color-interpolation-filters:linearRGB;solid-color:#000000;solid-opacity:1;fill:#800000;fill-opacity:1;fill-rule:evenodd;stroke:#ffffff;stroke-width:10;stroke-linecap:round;stroke-linejoin:miter;stroke-miterlimit:4;stroke-dasharray:none;stroke-dashoffset:0;stroke-opacity:1;color-rendering:auto;image-rendering:auto;shape-rendering:auto;text-rendering:auto;enable-background:accumulate"
       d="m 168.05273,180.20508 a 30.003,30.003 0 0 0 -20.70312,51.5957 l 29.79297,29.56641 -29.79297,29.56836 a 30.003,30.003 0 1 0 42.26367,42.58789 l 30.11914,-29.88867 30.11914,29.88867 a 30.003,30.003 0 1 0 42.26367,-42.58789 l -29.79296,-29.56836 29.79296,-29.56641 a 30.003,30.003 0 0 0 -21.60546,-51.58594 30.003,30.003 0 0 0 -20.65821,8.99805 l -30.11914,29.88867 -30.11914,-29.88867 a 30.003,30.003 0 0 0 -21.56055,-9.00781 z"
       id="path4565"
       inkscape:connector-curvature="0" />
  </g>
  <g
     inkscape:groupmode="layer"
     id="layer2"
     inkscape:label="Calque 2"
     style="display:none"
     transform="translate(-179.48797,-450.4219)">
    <path
       style="color:#000000;font-style:normal;font-variant:normal;font-weight:normal;font-stretch:normal;font-size:medium;line-height:normal;font-family:sans-serif;text-indent:0;text-align:start;text-decoration:none;text-decoration-line:none;text-decoration-style:solid;text-decoration-color:#000000;letter-spacing:normal;word-spacing:normal;text-transform:none;direction:ltr;block-progression:tb;writing-mode:lr-tb;baseline-shift:baseline;text-anchor:start;white-space:normal;clip-rule:nonzero;display:inline;overflow:visible;visibility:visible;opacity:1;isolation:auto;mix-blend-mode:normal;color-interpolation:sRGB;color-interpolation-filters:linearRGB;solid-color:#000000;solid-opacity:1;fill:#000000;fill-opacity:1;fill-rule:evenodd;stroke:none;stroke-width:60;stroke-linecap:round;stroke-linejoin:round;stroke-miterlimit:4;stroke-dasharray:none;stroke-dashoffset:0;stroke-opacity:1;color-rendering:auto;image-rendering:auto;shape-rendering:auto;text-rendering:auto;enable-background:accumulate"
       d="m -965.35938,186.92383 c 0.40407,-16.65826 -2.28547,-33.37246 -8.8789,-49.28711 -18.99521,-45.848975 -66.89882,-70.127104 -115.93942,-70.126954 -92.6065,-8.8e-4 -182.9538,60.743034 -230.9336,142.658204 -24.2999,41.48711 -35.4941,89.40885 -17.3594,133.18164 18.9954,45.85008 66.9001,70.1276 115.9414,70.12695 11.6078,-2e-5 220.6784,-9.6e-4 225.92969,0 17.25338,-3e-4 31.23993,-13.98685 31.24023,-31.24023"
       id="path5037"
       inkscape:connector-curvature="0"
       sodipodi:nodetypes="cscssccc" />
    <path
       style="color:#000000;clip-rule:nonzero;display:inline;overflow:visible;visibility:visible;opacity:1;isolation:auto;mix-blend-mode:normal;color-interpolation:sRGB;color-interpolation-filters:linearRGB;solid-color:#000000;solid-opacity:1;fill:#808000;fill-opacity:1;fill-rule:evenodd;stroke:none;stroke-width:60;stroke-linecap:round;stroke-linejoin:miter;stroke-miterlimit:4;stroke-dasharray:none;stroke-dashoffset:0;stroke-opacity:1;color-rendering:auto;image-rendering:auto;shape-rendering:auto;text-rendering:auto;enable-background:accumulate"
       d="m -1192.8207,215.30342 c 3.7725,13.40603 9.7513,26.96185 17.5937,40.35156 8.543,14.5857 18.7411,28.453 30.2129,41.31055 -16.0512,9.57879 -32.5259,17.04605 -47.8066,21.58008 l 0,62.40625 c 33.4294,-5.57398 66.7472,-20.11591 96.4668,-40.8379 29.7192,20.72153 63.036,35.26376 96.4648,40.8379 l 0,-62.40625 c -15.2807,-4.53403 -31.7555,-12.00129 -47.8066,-21.58008 11.4718,-12.85755 21.6699,-26.72485 30.2128,-41.31055 7.8424,-13.38971 13.8213,-26.94553 17.5938,-40.35156 l -64.0527,0 c -1.5231,3.21109 -3.2795,6.5529 -5.3145,10.02734 -6.9332,11.83723 -16.2789,23.36373 -27.0976,34.1211 -10.8192,-10.75765 -20.1663,-22.28351 -27.0997,-34.1211 -2.035,-3.47444 -3.7913,-6.81625 -5.3144,-10.02734 z"
       id="rect4920"
       inkscape:connector-curvature="0"
       sodipodi:nodetypes="cscccccccsccscscc" />
    <path
       style="color:#000000;font-style:normal;font-variant:normal;font-weight:normal;font-stretch:normal;font-size:medium;line-height:normal;font-family:sans-serif;text-indent:0;text-align:start;text-decoration:none;text-decoration-line:none;text-decoration-style:solid;text-decoration-color:#000000;letter-spacing:normal;word-spacing:normal;text-transform:none;direction:ltr;block-progression:tb;writing-mode:lr-tb;baseline-shift:baseline;text-anchor:start;white-space:normal;clip-rule:nonzero;display:inline;overflow:visible;visibility:visible;opacity:1;isolation:auto;mix-blend-mode:normal;color-interpolation:sRGB;color-interpolation-filters:linearRGB;solid-color:#000000;solid-opacity:1;fill:#000000;fill-opacity:1;fill-rule:evenodd;stroke:none;stroke-width:53.72849655;stroke-linecap:round;stroke-linejoin:miter;stroke-miterlimit:4;stroke-dasharray:none;stroke-dashoffset:0;stroke-opacity:1;color-rendering:auto;image-rendering:auto;shape-rendering:auto;text-rendering:auto;enable-background:accumulate"
       d="m -135.14453,463.2832 c -86.20963,0 -177.54859,60.92639 -221.29492,136.69727 -21.87326,37.88559 -29.16059,77.25019 -14.87696,110.46875 14.28364,33.21856 50.73528,53.08984 93.83985,53.08984 6.79967,0 13.61581,-0.42619 20.42383,-1.22656 l 35.9181,-6.46446 c 12.19155,-3.6754 36.20057,-13.7074 58.82604,-26.77382 29.94154,17.29157 62.30276,29.42265 94.74218,33.23633 l 30,3.52734 0,-107.9668 -31.12695,5.00391 c -1.59055,0.25564 -3.33899,0.4082 -5.3125,0.4082 -2.23985,0 -4.86937,-0.31071 -7.61328,-0.74023 8.74686,-10.25215 16.5835,-21.03995 23.3457,-32.26758 l 0.87891,0 7.38867,-14.98047 c 17.73817,-35.96671 21.99755,-73.30857 6.35547,-103.9082 -15.64208,-30.59964 -50.579,-48.10352 -91.49414,-48.10352 z"
       id="path4903"
       inkscape:connector-curvature="0"
       sodipodi:nodetypes="sssscccccccsccccss" />
    <path
       id="path4870"
       d="m -512.83203,645.0957 c -71.99301,0 -159.85643,57.14827 -198.0293,123.26563 -38.17288,66.11736 -16.29574,123.26367 55.69727,123.26367 5.67494,0 11.44702,-0.35639 17.28711,-1.04297 l 0,-46.23437 c -31.35748,-5.03998 -42.61041,-35.53508 -19.25586,-75.98633 25.59947,-44.33959 78.97357,-76.73438 117.4375,-76.73438 35.50571,0 51.81489,27.61256 33.98242,66.73438 l 53.92578,0 c 30.46659,-61.77542 7.29075,-113.26563 -61.04492,-113.26563 z"
       style="color:#000000;font-style:normal;font-variant:normal;font-weight:normal;font-stretch:normal;font-size:medium;line-height:normal;font-family:sans-serif;text-indent:0;text-align:start;text-decoration:none;text-decoration-line:none;text-decoration-style:solid;text-decoration-color:#000000;letter-spacing:normal;word-spacing:normal;text-transform:none;direction:ltr;block-progression:tb;writing-mode:lr-tb;baseline-shift:baseline;text-anchor:start;white-space:normal;clip-rule:nonzero;display:inline;overflow:visible;visibility:visible;opacity:1;isolation:auto;mix-blend-mode:normal;color-interpolation:sRGB;color-interpolation-filters:linearRGB;solid-color:#000000;solid-opacity:1;fill:#0000ff;fill-opacity:0.60526315;fill-rule:evenodd;stroke:#000000;stroke-width:20;stroke-linecap:round;stroke-linejoin:miter;stroke-miterlimit:4;stroke-dasharray:none;stroke-dashoffset:0;stroke-opacity:1;color-rendering:auto;image-rendering:auto;shape-rendering:auto;text-rendering:auto;enable-background:accumulate"
       inkscape:connector-curvature="0" />
    <path
       style="color:#000000;font-style:normal;font-variant:normal;font-weight:normal;font-stretch:normal;font-size:medium;line-height:normal;font-family:sans-serif;text-indent:0;text-align:start;text-decoration:none;text-decoration-line:none;text-decoration-style:solid;text-decoration-color:#000000;letter-spacing:normal;word-spacing:normal;text-transform:none;direction:ltr;block-progression:tb;writing-mode:lr-tb;baseline-shift:baseline;text-anchor:start;white-space:normal;clip-rule:nonzero;display:inline;overflow:visible;visibility:visible;opacity:1;isolation:auto;mix-blend-mode:normal;color-interpolation:sRGB;color-interpolation-filters:linearRGB;solid-color:#000000;solid-opacity:1;fill:#800000;fill-opacity:1;fill-rule:evenodd;stroke:none;stroke-width:25;stroke-linecap:round;stroke-linejoin:miter;stroke-miterlimit:4;stroke-dasharray:none;stroke-dashoffset:0;stroke-opacity:1;color-rendering:auto;image-rendering:auto;shape-rendering:auto;text-rendering:auto;enable-background:accumulate"
       d="m -601.19141,247.91797 c -68.73947,0 -125,56.26052 -125,125 0,57.86835 39.8744,106.88826 93.49805,120.94726 -9.67362,-14.68202 -7.94296,-34.89093 5.10938,-47.58593 l 2.27734,-2.27735 c -29.71923,-9.94474 -50.88477,-37.82388 -50.88477,-71.08398 0,-41.71747 33.28254,-75 75,-75 33.26011,0 61.13924,21.16553 71.08399,50.88476 l 2.27539,-2.27539 c 6.78904,-6.98432 16.04142,-11.05634 25.77734,-11.3457 8.20429,-0.24393 15.68574,2.16937 21.81836,6.26172 -14.04943,-53.63755 -63.07681,-93.52539 -120.95508,-93.52539 z"
       id="path4642"
       inkscape:connector-curvature="0" />
    <path
       id="path4610"
       d="m -601.45312,347.66406 a 25.0025,25.0025 0 0 0 -17.41602,42.93164 l 32.32226,32.32227 -32.32226,32.32226 a 25.0025,25.0025 0 1 0 35.35547,35.35547 l 32.32226,-32.32226 32.32227,32.32226 a 25.0025,25.0025 0 1 0 35.35547,-35.35547 l -32.32227,-32.32226 32.32227,-32.32227 a 25.0025,25.0025 0 0 0 -18.16992,-42.91992 25.0025,25.0025 0 0 0 -17.18555,7.56445 l -32.32227,32.32227 -32.32226,-32.32227 a 25.0025,25.0025 0 0 0 -17.93945,-7.57617 z"
       style="color:#000000;font-style:normal;font-variant:normal;font-weight:normal;font-stretch:normal;font-size:medium;line-height:normal;font-family:sans-serif;text-indent:0;text-align:start;text-decoration:none;text-decoration-line:none;text-decoration-style:solid;text-decoration-color:#000000;letter-spacing:normal;word-spacing:normal;text-transform:none;direction:ltr;block-progression:tb;writing-mode:lr-tb;baseline-shift:baseline;text-anchor:start;white-space:normal;clip-rule:nonzero;display:inline;overflow:visible;visibility:visible;opacity:1;isolation:auto;mix-blend-mode:normal;color-interpolation:sRGB;color-interpolation-filters:linearRGB;solid-color:#000000;solid-opacity:1;fill:#808000;fill-opacity:1;fill-rule:evenodd;stroke:none;stroke-width:25;stroke-linecap:round;stroke-linejoin:miter;stroke-miterlimit:4;stroke-dasharray:none;stroke-dashoffset:0;stroke-opacity:1;color-rendering:auto;image-rendering:auto;shape-rendering:auto;text-rendering:auto;enable-background:accumulate"
       inkscape:connector-curvature="0" />
    <g
       id="g4728"
       transform="translate(-1020.7739,-1270.2593)">
      <path
         id="path4649"
         d="m 338.48828,699.81445 a 37.50375,37.50375 0 0 0 -26.125,64.39453 l 23.48438,23.48243 -23.48438,23.48437 a 37.50375,37.50375 0 1 0 53.0332,53.0332 l 23.48243,-23.48242 23.48437,23.48242 a 37.50375,37.50375 0 1 0 53.0332,-53.0332 l -23.48242,-23.48437 23.48242,-23.48243 a 37.50375,37.50375 0 0 0 -27.2539,-64.3789 37.50375,37.50375 0 0 0 -25.7793,11.3457 l -23.48437,23.48438 -23.48243,-23.48438 a 37.50375,37.50375 0 0 0 -26.9082,-11.36133 z"
         style="color:#000000;font-style:normal;font-variant:normal;font-weight:normal;font-stretch:normal;font-size:medium;line-height:normal;font-family:sans-serif;text-indent:0;text-align:start;text-decoration:none;text-decoration-line:none;text-decoration-style:solid;text-decoration-color:#000000;letter-spacing:normal;word-spacing:normal;text-transform:none;direction:ltr;block-progression:tb;writing-mode:lr-tb;baseline-shift:baseline;text-anchor:start;white-space:normal;clip-rule:nonzero;display:inline;overflow:visible;visibility:visible;opacity:1;isolation:auto;mix-blend-mode:normal;color-interpolation:sRGB;color-interpolation-filters:linearRGB;solid-color:#000000;solid-opacity:1;fill:#808000;fill-opacity:1;fill-rule:evenodd;stroke:none;stroke-width:25;stroke-linecap:round;stroke-linejoin:miter;stroke-miterlimit:4;stroke-dasharray:none;stroke-dashoffset:0;stroke-opacity:1;color-rendering:auto;image-rendering:auto;shape-rendering:auto;text-rendering:auto;enable-background:accumulate"
         inkscape:connector-curvature="0" />
      <path
         id="path4644"
         d="m 338.87891,600.19336 c -75.49498,0 -137.5,62.00502 -137.5,137.5 0,54.85184 32.73858,102.57063 79.5957,124.57031 -9.52142,-22.98877 -4.84419,-50.7216 13.95898,-69.00976 l -0.24804,0.24414 5.80664,-5.80664 0.22265,-0.22266 c -14.87304,-11.34044 -24.33593,-29.28191 -24.33593,-49.77539 0,-34.96196 27.53803,-62.5 62.5,-62.5 20.49348,0 38.43495,9.4629 49.77539,24.33594 l 0.22461,-0.22461 5.80664,-5.80664 -0.24805,0.25195 c 11.31464,-11.63921 26.73758,-18.42684 42.96289,-18.9082 9.09268,-0.26986 17.93319,1.4693 26.00977,4.86718 -22.01663,-46.81406 -69.71085,-79.51562 -124.53125,-79.51562 z"
         style="color:#000000;font-style:normal;font-variant:normal;font-weight:normal;font-stretch:normal;font-size:medium;line-height:normal;font-family:sans-serif;text-indent:0;text-align:start;text-decoration:none;text-decoration-line:none;text-decoration-style:solid;text-decoration-color:#000000;letter-spacing:normal;word-spacing:normal;text-transform:none;direction:ltr;block-progression:tb;writing-mode:lr-tb;baseline-shift:baseline;text-anchor:start;white-space:normal;clip-rule:nonzero;display:inline;overflow:visible;visibility:visible;opacity:1;isolation:auto;mix-blend-mode:normal;color-interpolation:sRGB;color-interpolation-filters:linearRGB;solid-color:#000000;solid-opacity:1;fill:#800000;fill-opacity:1;fill-rule:evenodd;stroke:none;stroke-width:25;stroke-linecap:round;stroke-linejoin:miter;stroke-miterlimit:4;stroke-dasharray:none;stroke-dashoffset:0;stroke-opacity:1;color-rendering:auto;image-rendering:auto;shape-rendering:auto;text-rendering:auto;enable-background:accumulate"
         inkscape:connector-curvature="0" />
    </g>
    <path
       style="color:#000000;font-style:normal;font-variant:normal;font-weight:normal;font-stretch:normal;font-size:medium;line-height:normal;font-family:sans-serif;text-indent:0;text-align:start;text-decoration:none;text-decoration-line:none;text-decoration-style:solid;text-decoration-color:#000000;letter-spacing:normal;word-spacing:normal;text-transform:none;direction:ltr;block-progression:tb;writing-mode:lr-tb;baseline-shift:baseline;text-anchor:start;white-space:normal;clip-rule:nonzero;display:inline;overflow:visible;visibility:visible;opacity:1;isolation:auto;mix-blend-mode:normal;color-interpolation:sRGB;color-interpolation-filters:linearRGB;solid-color:#000000;solid-opacity:1;fill:#ffffff;fill-opacity:1;fill-rule:evenodd;stroke:none;stroke-width:53.72849655;stroke-linecap:round;stroke-linejoin:miter;stroke-miterlimit:4;stroke-dasharray:none;stroke-dashoffset:0;stroke-opacity:1;color-rendering:auto;image-rendering:auto;shape-rendering:auto;text-rendering:auto;enable-background:accumulate"
       d="m -135.14375,490.14666 c -71.99301,0 -159.85643,57.14827 -198.0293,123.26563 -38.17288,66.11736 -16.29574,123.26367 55.69727,123.26367 5.67494,0 11.44702,-0.35639 17.28711,-1.04297 l 0,-46.23437 c -31.35748,-5.03998 -42.61041,-35.53508 -19.25586,-75.98633 25.59947,-44.33959 78.97357,-76.73438 117.4375,-76.73438 35.50571,0 51.81489,27.61256 33.98242,66.73438 l 53.92578,0 c 30.46659,-61.77542 7.29075,-113.26563 -61.04492,-113.26563 z"
       id="path4860"
       inkscape:connector-curvature="0" />
    <path
       inkscape:connector-curvature="0"
       id="path4881"
       d="m -628.20313,758.36095 c 1.6294,3.30654 3.40223,6.64057 5.34179,10 12.33455,21.36407 29.86194,41.78671 50.36133,59.65234 -19.06302,10.80278 -38.87538,17.08203 -55.80078,17.08203 -3.37306,0 -6.56198,-0.26359 -9.57617,-0.74804 l 0,46.23242 c 32.4083,-3.80985 66.86328,-17.82535 97.88086,-38.01953 31.01729,20.19375 65.47114,34.20958 97.8789,38.01953 l 0,-46.23242 c -3.01419,0.48445 -6.20311,0.74804 -9.57617,0.74804 -16.9254,0 -36.73776,-6.27925 -55.80078,-17.08203 20.49924,-17.86556 38.02685,-38.2884 50.36133,-59.65234 1.93965,-3.35958 3.71244,-6.69335 5.34179,-10 l -53.91601,0 c -1.48547,3.25903 -3.18563,6.59016 -5.1543,10 -7.62176,13.20128 -17.71714,25.32912 -29.13672,35.87305 -11.41934,-10.54382 -21.51312,-22.67198 -29.13476,-35.87305 -1.96873,-3.40994 -3.6688,-6.7409 -5.1543,-10 l -53.91601,0 z"
       style="color:#000000;clip-rule:nonzero;display:inline;overflow:visible;visibility:visible;opacity:1;isolation:auto;mix-blend-mode:normal;color-interpolation:sRGB;color-interpolation-filters:linearRGB;solid-color:#000000;solid-opacity:1;fill:#0000ff;fill-opacity:0.60526315;fill-rule:evenodd;stroke:#000000;stroke-width:20;stroke-linecap:round;stroke-linejoin:miter;stroke-miterlimit:4;stroke-dasharray:none;stroke-dashoffset:0;stroke-opacity:1;color-rendering:auto;image-rendering:auto;shape-rendering:auto;text-rendering:auto;enable-background:accumulate" />
    <path
       style="color:#000000;clip-rule:nonzero;display:inline;overflow:visible;visibility:visible;opacity:1;isolation:auto;mix-blend-mode:normal;color-interpolation:sRGB;color-interpolation-filters:linearRGB;solid-color:#000000;solid-opacity:1;fill:#999999;fill-opacity:1;fill-rule:evenodd;stroke:none;stroke-width:20;stroke-linecap:round;stroke-linejoin:miter;stroke-miterlimit:4;stroke-dasharray:none;stroke-dashoffset:0;stroke-opacity:1;color-rendering:auto;image-rendering:auto;shape-rendering:auto;text-rendering:auto;enable-background:accumulate"
       d="m -250.51485,603.41191 c 1.6294,3.30654 3.40223,6.64057 5.34179,10 12.33455,21.36407 29.86194,41.78671 50.36133,59.65234 -19.06302,10.80278 -38.87538,17.08203 -55.80078,17.08203 -3.37306,0 -6.56198,-0.26359 -9.57617,-0.74804 l 0,46.23242 c 32.4083,-3.80985 66.86328,-17.82535 97.88086,-38.01953 31.01729,20.19375 65.47114,34.20958 97.8789,38.01953 l 0,-46.23242 c -3.01419,0.48445 -6.20311,0.74804 -9.57617,0.74804 -16.9254,0 -36.73776,-6.27925 -55.80078,-17.08203 20.49924,-17.86556 38.02685,-38.2884 50.36133,-59.65234 1.93965,-3.35958 3.71244,-6.69335 5.34179,-10 l -53.91601,0 c -1.48547,3.25903 -3.18563,6.59016 -5.1543,10 -7.62176,13.20128 -17.71714,25.32912 -29.13672,35.87305 -11.41934,-10.54382 -21.51312,-22.67198 -29.13476,-35.87305 -1.96873,-3.40994 -3.6688,-6.7409 -5.1543,-10 l -53.91601,0 z"
       id="rect4773"
       inkscape:connector-curvature="0" />
    <path
       style="color:#000000;font-style:normal;font-variant:normal;font-weight:normal;font-stretch:normal;font-size:medium;line-height:normal;font-family:sans-serif;text-indent:0;text-align:start;text-decoration:none;text-decoration-line:none;text-decoration-style:solid;text-decoration-color:#000000;letter-spacing:normal;word-spacing:normal;text-transform:none;direction:ltr;block-progression:tb;writing-mode:lr-tb;baseline-shift:baseline;text-anchor:start;white-space:normal;clip-rule:nonzero;display:inline;overflow:visible;visibility:visible;opacity:1;isolation:auto;mix-blend-mode:normal;color-interpolation:sRGB;color-interpolation-filters:linearRGB;solid-color:#000000;solid-opacity:1;fill:#ffff00;fill-opacity:1;fill-rule:evenodd;stroke:none;stroke-width:60;stroke-linecap:round;stroke-linejoin:miter;stroke-miterlimit:4;stroke-dasharray:none;stroke-dashoffset:0;stroke-opacity:1;color-rendering:auto;image-rendering:auto;shape-rendering:auto;text-rendering:auto;enable-background:accumulate"
       d="m -1090.1782,97.510451 c -78.6121,-7.5e-4 -162.3969,55.004809 -205.0468,127.820309 -21.3251,36.40832 -28.987,74.05837 -15.5313,106.53711 13.4557,32.47874 48.9198,51.6099 88.2266,51.60938 9.8524,-1e-5 19.7852,-0.86476 29.709,-2.51953 l 0,-62.4004 c -10.6721,3.16964 -20.7646,4.91992 -29.709,4.91993 -23.0937,3e-4 -29.3092,-6.16057 -32.795,-14.57422 -3.4857,-8.41365 -3.3508,-27.25635 11.8731,-53.24805 30.4476,-51.98267 107.0881,-98.14497 153.2734,-98.14453 23.093,-7e-5 29.3073,6.16078 32.793,14.57422 3.0197,7.28873 3.314,22.40883 -6.5566,43.21875 l 64.06246,0 c 6.49102,-23.0476 6.43306,-45.64948 -2.07426,-66.1836 -13.4556,-32.47812 -48.9186,-51.609489 -88.2246,-51.609369 z"
       id="path4978"
       inkscape:connector-curvature="0"
       sodipodi:nodetypes="cssccccsscsccsc" />
  </g>
  <g
     inkscape:groupmode="layer"
     id="layer3"
     inkscape:label="Calque 3"
     transform="translate(-179.48797,-450.4219)">
    <g
       id="g5191">
      <path
         inkscape:connector-curvature="0"
         id="path5045"
         d="m 340.2181,453.42231 c -7.54255,-0.0209 -15.15126,0.7425 -22.64084,2.20878 -29.95834,5.86509 -59.88115,22.3534 -85.20275,47.67125 -25.3216,25.31786 -41.81079,55.23463 -47.67674,85.18854 -5.86596,29.9539 -0.4875,61.82372 21.36778,83.67576 18.86327,18.86042 45.18826,25.43957 71.30461,23.11897 l 0,-49.13476 c -17.08238,2.7105 -29.23416,-0.95605 -36.7823,-8.50297 -7.9838,-7.98265 -11.63435,-21.10527 -7.97819,-39.7753 3.65625,-18.67003 15.2408,-41.00802 34.28869,-60.05307 19.0479,-19.04506 41.38919,-30.62791 60.06199,-34.28358 18.6728,-3.65567 31.79737,-0.004 39.78121,7.97858 7.61227,7.61115 11.27002,19.90723 8.42635,37.21695 l 49.18179,0 c 2.43454,-26.25652 -4.11666,-52.76934 -23.08585,-71.73571 -16.39147,-16.38903 -38.4181,-23.51069 -61.04575,-23.57344 z"
         style="color:#000000;font-style:normal;font-variant:normal;font-weight:normal;font-stretch:normal;font-size:medium;line-height:normal;font-family:sans-serif;text-indent:0;text-align:start;text-decoration:none;text-decoration-line:none;text-decoration-style:solid;text-decoration-color:#000000;letter-spacing:normal;word-spacing:normal;text-transform:none;direction:ltr;block-progression:tb;writing-mode:lr-tb;baseline-shift:baseline;text-anchor:start;white-space:normal;clip-rule:nonzero;display:inline;overflow:visible;visibility:visible;opacity:1;isolation:auto;mix-blend-mode:normal;color-interpolation:sRGB;color-interpolation-filters:linearRGB;solid-color:#000000;solid-opacity:1;fill:#000000;fill-opacity:1;fill-rule:evenodd;stroke:none;stroke-width:40;stroke-linecap:round;stroke-linejoin:round;stroke-miterlimit:4;stroke-dasharray:none;stroke-dashoffset:0;stroke-opacity:1;color-rendering:auto;image-rendering:auto;shape-rendering:auto;text-rendering:auto;enable-background:accumulate" />
      <path
         inkscape:connector-curvature="0"
         id="path5180"
         d="m 269.23418,540.59595 0,8.13589 0,154.69005 163.25379,0 0,-162.82594 -163.25379,0 z m 8.1371,8.13589 49.18338,0 c 0.1388,0.84491 0.27644,1.68945 0.44659,2.55836 2.93229,14.97337 10.9685,32.30458 23.85982,48.4054 12.89143,-16.101 20.92916,-33.43214 23.86142,-48.4054 0.17016,-0.86891 0.30778,-1.71345 0.44659,-2.55836 l 49.18179,0 c -0.36897,3.9946 -0.94337,7.98284 -1.71801,11.93848 -4.82683,24.64751 -16.85254,49.26947 -35.06742,71.32573 11.5962,7.00079 23.2735,11.57263 33.78646,13.6308 1.01858,0.19942 2.01428,0.36909 2.99897,0.52439 l 0,49.13476 c -4.14293,-0.36582 -8.28003,-0.95123 -12.38207,-1.75431 -20.90464,-4.09259 -41.78906,-13.36318 -61.10773,-27.19168 -19.31866,13.82784 -40.20304,23.09908 -61.10772,27.19168 -4.10151,0.80299 -8.23955,1.38488 -12.38207,1.75113 l 0,-49.13 c 0.98565,-0.15589 1.98155,-0.32647 3.00056,-0.52597 10.51354,-2.05828 22.18996,-6.62969 33.78645,-13.6308 -18.21566,-22.05617 -30.24207,-46.67598 -35.06899,-71.32415 -0.77474,-3.95604 -1.349,-7.94492 -1.71802,-11.94006 z"
         style="color:#000000;font-style:normal;font-variant:normal;font-weight:normal;font-stretch:normal;font-size:medium;line-height:normal;font-family:sans-serif;text-indent:0;text-align:start;text-decoration:none;text-decoration-line:none;text-decoration-style:solid;text-decoration-color:#000000;letter-spacing:normal;word-spacing:normal;text-transform:none;direction:ltr;block-progression:tb;writing-mode:lr-tb;baseline-shift:baseline;text-anchor:start;white-space:normal;clip-rule:nonzero;display:inline;overflow:visible;visibility:visible;opacity:1;isolation:auto;mix-blend-mode:normal;color-interpolation:sRGB;color-interpolation-filters:linearRGB;solid-color:#000000;solid-opacity:1;fill:#800000;fill-opacity:1;fill-rule:evenodd;stroke:none;stroke-width:20;stroke-linecap:round;stroke-linejoin:miter;stroke-miterlimit:4;stroke-dasharray:none;stroke-dashoffset:0;stroke-opacity:1;color-rendering:auto;image-rendering:auto;shape-rendering:auto;text-rendering:auto;enable-background:accumulate" />
    </g>
  </g>
</svg>
