<?xml version="1.0" encoding="UTF-8" standalone="no"?>
<svg xmlns:rdf="http://www.w3.org/1999/02/22-rdf-syntax-ns#" xmlns="http://www.w3.org/2000/svg" height="256" width="256" version="1.1" xmlns:cc="http://creativecommons.org/ns#" xmlns:dc="http://purl.org/dc/elements/1.1/" viewBox="0 0 256.00001 256">
	<path d="m160.73 3.0004c-7.5426-0.0209-15.151 0.7425-22.641 2.2088-29.958 5.8651-59.881 22.353-85.203 47.671s-41.811 55.235-47.677 85.189-0.4875 61.824 21.368 83.676c18.863 18.86 45.188 25.44 71.305 23.119v-49.135c-17.082 2.7105-29.234-0.95605-36.782-8.503-7.9838-7.9826-11.634-21.105-7.9782-39.775 3.6562-18.67 15.241-41.008 34.289-60.053s41.389-30.628 60.062-34.284c18.673-3.6557 31.797-0.004 39.781 7.9786 7.6123 7.6112 11.27 19.907 8.4264 37.217h49.182c2.44-26.274-4.11-52.787-23.08-71.753-16.4-16.389-38.42-23.511-61.05-23.574z"/>
	<path fill="#008080" d="m89.746 90.174v8.1359 154.69h163.25v-162.83h-163.25zm8.1371 8.1359h49.183c0.1388 0.84491 0.27644 1.6894 0.44659 2.5584 2.9323 14.973 10.968 32.305 23.86 48.405 12.891-16.101 20.929-33.432 23.861-48.405 0.17016-0.86891 0.30778-1.7134 0.44659-2.5584h49.182c-0.36897 3.9946-0.94337 7.9828-1.718 11.938-4.8268 24.648-16.853 49.269-35.067 71.326 11.596 7.0008 23.274 11.573 33.786 13.631 1.0186 0.19942 2.0143 0.36909 2.999 0.52439v49.135c-4.1429-0.36582-8.28-0.95123-12.382-1.7543-20.905-4.0926-41.789-13.363-61.108-27.192-19.319 13.828-40.203 23.099-61.108 27.192-4.1015 0.80299-8.2396 1.3849-12.382 1.7511v-49.13c0.98565-0.15589 1.9816-0.32647 3.0006-0.52597 10.514-2.0583 22.19-6.6297 33.786-13.631-18.216-22.056-30.242-46.676-35.069-71.324-0.77474-3.956-1.349-7.9449-1.718-11.94z"/>
</svg>
